<?xml version="1.0" encoding="UTF-8" standalone="no"?>
<!-- Created with Inkscape (http://www.inkscape.org/) -->

<svg
   version="1.1"
   id="svg2"
   width="1056"
   height="816"
   viewBox="0 0 1056 816"
   xmlns="http://www.w3.org/2000/svg"
   xmlns:svg="http://www.w3.org/2000/svg">
  <defs
     id="defs6">
    <clipPath
       clipPathUnits="userSpaceOnUse"
       id="clipPath18">
      <path
         d="M 0,612 H 792 V 0 H 0 Z"
         id="path16" />
    </clipPath>
  </defs>
  <g
     id="g10"
     transform="matrix(1.3333333,0,0,-1.3333333,0,816)">
    <g
       id="g12">
      <g
         id="g14"
         clip-path="url(#clipPath18)">
        <g
           id="g20"
           transform="translate(452.624,432.3472)">
          <path
             d="m 0,0 c -3.951,0.842 -8.228,5.312 -8.228,5.312 0,0 -0.907,-1.101 -2.461,-2.785 0.842,-1.49 2.073,-0.713 4.405,-0.842 2.333,-0.13 5.248,-5.896 5.248,-5.896 0,0 -2.138,0.454 -3.175,0.648 -1.036,0.194 -2.462,1.555 -5.831,0.647 -3.368,-0.906 -7.45,-1.036 -9.394,-0.388 -1.943,0.648 -2.915,-0.195 -2.915,-0.195 l -5.312,4.017 1.684,-4.923 c 0,0 -3.239,2.526 -5.312,2.98 -2.073,0.453 -3.369,-0.713 -3.369,-0.713 0,0 0.647,-2.98 1.684,-3.758 1.037,-0.777 8.228,-6.089 11.467,-8.357 3.239,-2.268 5.637,-5.895 9.329,-11.273 -7.774,2.981 -6.543,3.045 -9.199,6.09 0.065,-1.425 2.008,-4.859 2.008,-4.859 0,0 -1.943,0.583 -4.017,1.361 -2.073,0.777 -7.514,4.664 -7.514,4.664 0,0 0.841,-0.972 1.813,-3.174 -1.619,0.194 -8.94,5.571 -8.94,5.571 0,0 0.648,-1.036 1.554,-3.044 -7.191,3.952 -9.263,9.782 -9.263,9.782 l -3.435,-2.138 v 4.276 l -1.619,-0.712 c 0,0 -0.583,-0.065 -0.583,1.295 -3.11,-1.62 -6.608,-1.943 -6.608,-1.943 0,0 3.433,3.498 5.96,6.024 -0.259,0.26 -1.684,0.648 -2.98,0.713 -1.296,0.065 -1.685,0.454 -3.24,2.657 -0.323,-0.648 -0.129,-1.814 -0.258,-6.09 -1.62,0.648 -6.35,6.025 -6.35,6.025 0,0 0,-1.361 -0.453,-5.831 -5.442,5.701 -5.636,8.228 -5.507,10.56 -3.239,-0.324 -8.098,1.814 -8.098,1.814 0,0 0.518,0.454 2.591,1.814 -0.712,0 -3.174,0.648 -4.47,1.231 -6.932,-8.227 -16.65,-6.284 -19.825,-5.895 0,0.388 1.425,0.907 5.183,2.526 -0.259,0.648 -4.6,4.082 -6.802,6.997 0.648,-0.194 4.794,0.454 4.794,0.454 l -0.621,1.166 h -9.68 l 1.749,-1.555 c 0,0 -3.887,-0.583 -4.276,-2.138 -0.388,-1.555 -4.859,-4.47 -10.69,-5.053 -5.83,-0.583 -8.163,6.025 -8.163,6.025 0,0 2.527,-0.972 4.859,-1.166 l -3.167,3.887 h -5.135 c -1.564,0 -2.608,-1.043 -2.608,-2.606 v -172.071 c 0,-1.564 1.044,-2.607 2.608,-2.607 H 11.444 c 1.565,0 2.608,1.043 2.608,2.607 v 40.15 c 0,1.564 -1.043,2.606 -2.608,2.606 h -90.821 c -1.043,0 -1.564,0.523 -1.564,1.565 v 18.772 c 0,1.042 0.521,1.565 1.564,1.565 h 77.786 c 1.564,0 2.607,1.042 2.607,2.606 v 39.106 c 0,1.565 -1.043,2.608 -2.607,2.608 h -77.786 c -1.043,0 -1.564,0.521 -1.564,1.564 v 17.207 c 0,1.043 0.521,1.564 1.564,1.564 h 90.821 c 1.565,0 2.608,1.043 2.608,2.607 V 2.6 C 9.911,-0.052 3.672,-0.782 0,0"
             style="fill:#100f0d;fill-opacity:1;fill-rule:nonzero;stroke:none"
             id="path22" />
        </g>
        <g
           id="g24"
           transform="translate(336.333,453.2568)">
          <path
             d="m 0,0 c 1.944,-1.069 6.462,-2.381 9.427,-1.652 2.964,0.729 3.455,0.724 5.344,2.721 1.701,1.798 1.507,2.089 2.818,2.089 1.312,0 3.79,0.729 3.79,0.729 0,0 -3.255,2.867 -4.907,2.964 C 15.356,6.917 13.848,7.045 12.876,5.539 11.904,4.033 11.176,3.062 9.767,3.499 8.357,3.936 7.235,6.531 6.511,7.629 6.107,8.24 4.616,9.864 4.616,9.864 l -2.283,0.34 V 7.435 c 0,0 -2.965,1.311 -3.985,1.457 C -0.146,6.851 1.166,4.033 1.604,3.693 -1.069,4.082 -2.332,4.956 -2.672,5.053 -3.013,5.15 -1.943,1.069 0,0"
             style="fill:#100f0d;fill-opacity:1;fill-rule:nonzero;stroke:none"
             id="path26" />
        </g>
        <g
           id="g28"
           transform="translate(359.6562,450.4873)">
          <path
             d="m 0,0 c 0.534,-0.729 7.872,-3.401 13.362,-3.304 5.491,0.097 9.038,4.081 10.495,5.442 1.458,1.361 3.256,1.361 3.256,1.361 0,0 -2.138,2.769 -3.547,3.158 -1.409,0.388 -5.636,-1.069 -6.754,-0.924 -1.118,0.146 -4.908,3.742 -7.628,5.491 0.048,-0.291 0.68,-3.012 0.68,-3.012 0,0 -2.867,2.186 -4.616,3.595 0.048,-0.68 0.971,-3.741 0.971,-3.741 L 1.555,9.038 C 1.312,7.92 6.365,1.069 6.316,0.68 6.268,0.292 4.665,-0.097 0,0"
             style="fill:#100f0d;fill-opacity:1;fill-rule:nonzero;stroke:none"
             id="path30" />
        </g>
        <g
           id="g32"
           transform="translate(390.1704,461.9546)">
          <path
             d="m 0,0 -0.097,-1.458 2.624,0.583 c 0,0 -1.069,-2.235 -1.264,-3.79 l 4.082,1.264 -0.778,-1.264 c 0,0 1.458,-2.138 2.43,-3.79 0.971,-1.652 5.248,-6.025 5.248,-6.025 l -0.875,4.179 c 0,0 7.968,-7.969 7.872,-7.677 -0.098,0.291 -0.778,3.692 -0.778,3.692 0,0 1.069,-0.971 2.235,-2.623 1.167,-1.653 6.9,-5.442 6.9,-5.442 l -1.36,5.247 c 0,0 1.651,-1.652 2.332,-3.109 0.68,-1.458 6.122,-4.762 6.122,-4.762 0,0 -3.207,8.163 -4.47,9.718 -1.264,1.554 -9.524,10.107 -11.953,12.341 -2.43,2.236 -1.749,4.179 -1.749,4.179 0,0 2.138,0.875 2.817,0.389 0.681,-0.486 2.333,-0.583 5.637,-3.304 -0.777,6.9 -4.081,9.038 -6.997,10.204 C 15.063,9.718 4.082,5.928 0.972,4.762 -2.138,3.596 -7.094,-0.583 -7.094,-0.583 -6.511,-0.68 0,0 0,0"
             style="fill:#100f0d;fill-opacity:1;fill-rule:nonzero;stroke:none"
             id="path34" />
        </g>
        <g
           id="g36"
           transform="translate(422.5312,471.6724)">
          <path
             d="m 0,0 c 0.486,-0.583 3.401,-1.652 3.401,-1.652 0,0 -0.486,-0.583 -2.429,-1.458 1.652,-0.486 7.774,-1.749 7.774,-1.749 0,0 0.194,-2.624 0.389,-3.596 0.194,-0.971 5.15,-6.899 5.15,-6.899 l 0.681,5.928 6.219,-6.997 -0.389,6.802 c 0,0 2.235,-2.041 2.527,-2.429 0.291,-0.389 3.304,-0.389 3.304,-0.389 l -5.15,4.859 c 0,0 0.194,3.207 0.291,4.762 0.097,1.555 3.304,3.012 5.345,3.012 2.04,0 8.746,-0.583 8.746,-0.583 l -2.333,1.944 c 0,0 -3.79,2.721 -5.635,2.721 -1.847,0 -5.443,-1.555 -7.289,-0.875 C 18.756,4.082 14.577,3.596 12.05,2.624 9.523,1.652 2.041,1.652 2.041,1.652 l 1.943,-1.749 c 0,0 -0.68,-0.292 -3.984,0.097"
             style="fill:#100f0d;fill-opacity:1;fill-rule:nonzero;stroke:none"
             id="path38" />
        </g>
        <g
           id="g40"
           transform="translate(473.6475,449.127)">
          <path
             d="m 0,0 c -3.304,-0.68 -4.373,-0.777 -4.762,-0.097 1.749,2.429 3.498,6.025 2.236,6.608 -1.264,0.583 -3.888,2.138 -3.888,4.178 0,2.041 0.098,3.305 0.098,3.305 l -8.163,-5.248 2.332,-0.68 -2.916,-2.041 3.304,-1.555 c 0,0 -3.012,-0.097 -1.068,-2.332 -1.167,-1.166 -3.013,-0.68 -0.778,-2.721 -2.235,-2.43 -3.791,-2.333 -5.053,-2.43 -1.264,-0.097 -7.386,0.097 -8.65,-0.388 5.734,-2.236 7.386,-6.317 15.258,-5.151 7.871,1.166 9.62,4.47 10.786,4.47 1.167,0 8.455,0.486 8.455,0.486 0,0 -3.887,4.276 -7.191,3.596"
             style="fill:#100f0d;fill-opacity:1;fill-rule:nonzero;stroke:none"
             id="path42" />
        </g>
        <g
           id="g44"
           transform="translate(476.1826,478.4609)">
          <path
             d="M 0,0 C -0.002,0.003 -0.009,0.014 -0.009,0.014 -0.009,0.014 -0.005,0.008 0,0"
             style="fill:#100f0d;fill-opacity:1;fill-rule:nonzero;stroke:none"
             id="path46" />
        </g>
        <g
           id="g48"
           transform="translate(490.0703,469.1455)">
          <path
             d="M 0,0 C -1.846,3.888 -3.4,12.147 -3.887,12.536 -4.373,8.844 -4.373,7.483 -4.373,7.483 c 0,0 -2.623,3.498 -2.623,4.859 C -7.871,10.01 -7.871,8.163 -7.871,8.163 l -2.43,4.665 c 0,0 0.098,-4.859 0.389,-5.345 -3.329,0.99 -3.908,1.728 -3.976,1.832 0.093,-0.147 2.26,-3.61 3.782,-4.941 1.555,-1.361 2.429,-2.527 2.333,-5.249 0,0 -8.942,0.292 -10.399,1.458 3.596,-4.567 8.843,-6.511 10.593,-6.511 1.749,0 6.705,0.486 9.231,2.721 2.528,2.235 3.694,2.916 3.694,2.916 0,0 -4.373,0.68 -5.346,0.291"
             style="fill:#100f0d;fill-opacity:1;fill-rule:nonzero;stroke:none"
             id="path50" />
        </g>
        <g
           id="g52"
           transform="translate(329.9312,232.8389)">
          <path
             d="m 0,0 c 0.271,0 0.407,0.136 0.407,0.407 0,0.746 -0.068,1.222 -0.203,1.628 -0.475,1.493 -1.697,2.307 -3.596,2.307 -1.9,0 -3.121,-0.814 -3.596,-2.307 C -7.124,1.629 -7.191,1.153 -7.191,0.407 -7.191,0.136 -7.056,0 -6.784,0 Z m -19.199,-11.329 c -0.611,1.832 -1.017,3.867 -1.017,7.394 0,3.528 0.406,5.564 1.017,7.395 2.103,6.445 7.666,10.041 15.603,10.041 8.548,0 13.772,-3.528 15.807,-9.837 0.611,-1.9 1.018,-4.613 1.018,-10.584 0,-0.406 -0.271,-0.678 -0.679,-0.678 H -6.784 c -0.272,0 -0.407,-0.135 -0.407,-0.407 0,-0.203 0.067,-0.474 0.135,-0.679 0.611,-1.831 2.918,-2.848 5.903,-2.848 2.374,0 4.817,0.746 7.258,2.441 0.408,0.272 0.679,0.204 0.95,-0.135 l 5.292,-5.835 c 0.271,-0.271 0.203,-0.746 -0.136,-1.017 -3.867,-3.392 -9.09,-5.291 -14.925,-5.291 -8.751,0 -14.382,3.73 -16.485,10.04"
             style="fill:#100f0d;fill-opacity:1;fill-rule:nonzero;stroke:none"
             id="path54" />
        </g>
        <g
           id="g56"
           transform="translate(368.1274,224.2236)">
          <path
             d="m 0,0 c 0.271,0.882 0.407,1.899 0.407,4.681 0,2.781 -0.136,3.798 -0.407,4.68 -0.475,1.425 -1.492,1.901 -2.849,1.901 -1.357,0 -2.375,-0.476 -2.849,-1.901 -0.272,-0.882 -0.407,-1.899 -0.407,-4.68 0,-2.782 0.135,-3.799 0.407,-4.681 0.474,-1.425 1.492,-1.899 2.849,-1.899 1.357,0 2.374,0.474 2.849,1.899 m 1.085,-11.94 c -0.406,0 -0.678,0.271 -0.678,0.678 v 2.443 H 0.339 c -1.424,-2.375 -4.274,-3.935 -8.344,-3.935 -5.631,0 -9.023,2.849 -10.651,7.937 -0.882,2.713 -1.153,5.63 -1.153,9.498 0,3.867 0.271,6.784 1.153,9.498 1.628,5.088 5.02,7.937 10.651,7.937 4.07,0 6.92,-1.56 8.344,-3.935 h 0.068 v 15.332 c 0,0.407 0.272,0.678 0.678,0.678 h 12.212 c 0.407,0 0.678,-0.271 0.678,-0.678 v -44.775 c 0,-0.407 -0.271,-0.678 -0.678,-0.678 z"
             style="fill:#100f0d;fill-opacity:1;fill-rule:nonzero;stroke:none"
             id="path58" />
        </g>
        <g
           id="g60"
           transform="translate(408.3594,224.2236)">
          <path
             d="m 0,0 c 0.271,0.882 0.407,1.899 0.407,4.681 0,2.781 -0.136,3.798 -0.407,4.68 -0.475,1.425 -1.492,1.901 -2.85,1.901 -1.356,0 -2.374,-0.476 -2.848,-1.901 -0.272,-0.882 -0.407,-1.899 -0.407,-4.68 0,-2.782 0.135,-3.799 0.407,-4.681 0.474,-1.425 1.492,-1.899 2.848,-1.899 1.358,0 2.375,0.474 2.85,1.899 m 1.085,-11.94 c -0.406,0 -0.678,0.271 -0.678,0.678 v 2.443 H 0.339 c -1.425,-2.375 -4.274,-3.935 -8.344,-3.935 -5.631,0 -9.023,2.849 -10.651,7.937 -0.882,2.713 -1.153,5.63 -1.153,9.498 0,3.867 0.271,6.784 1.153,9.498 1.628,5.088 5.02,7.937 10.651,7.937 4.07,0 6.919,-1.56 8.344,-3.935 h 0.068 v 15.332 c 0,0.407 0.272,0.678 0.678,0.678 h 12.212 c 0.407,0 0.678,-0.271 0.678,-0.678 v -44.775 c 0,-0.407 -0.271,-0.678 -0.678,-0.678 z"
             style="fill:#100f0d;fill-opacity:1;fill-rule:nonzero;stroke:none"
             id="path62" />
        </g>
        <g
           id="g64"
           transform="translate(448.252,223.0703)">
          <path
             d="m 0,0 v 1.764 c 0,0.271 -0.136,0.407 -0.407,0.407 h -3.189 c -2.035,0 -3.188,-0.95 -3.188,-2.375 0,-1.357 0.882,-2.171 2.917,-2.171 C -1.085,-2.375 0,-1.628 0,0 m 0.61,-10.787 c -0.407,0 -0.677,0.271 -0.677,0.679 v 1.628 h -0.069 c -1.832,-1.9 -4.477,-3.121 -8.683,-3.121 -5.495,0 -10.583,2.985 -10.583,10.244 0,7.598 6.309,11.126 14.586,11.126 h 4.409 C -0.136,9.769 0,9.904 0,10.176 v 0.543 c 0,1.628 -1.018,2.306 -5.834,2.306 -2.578,0 -5.359,-0.746 -6.92,-1.696 -0.339,-0.203 -0.679,-0.203 -0.882,0.203 l -4.07,7.327 c -0.272,0.543 -0.204,0.882 0.203,1.154 3.189,2.103 8.073,3.257 13.568,3.257 12.415,0 16.689,-4.139 16.689,-12.89 v -20.488 c 0,-0.408 -0.272,-0.679 -0.678,-0.679 z"
             style="fill:#100f0d;fill-opacity:1;fill-rule:nonzero;stroke:none"
             id="path66" />
        </g>
        <g
           id="g68"
           transform="translate(270.7461,183.7686)">
          <path
             d="M 0,0 C 0.144,0.451 0.205,0.943 0.205,1.846 0.205,2.748 0.144,3.24 0,3.691 -0.267,4.512 -0.902,4.963 -1.825,4.963 -2.769,4.963 -3.404,4.512 -3.671,3.691 -3.814,3.24 -3.876,2.748 -3.876,1.846 c 0,-0.903 0.062,-1.395 0.205,-1.846 0.267,-0.82 0.902,-1.271 1.846,-1.271 0.923,0 1.558,0.451 1.825,1.271 m -5.968,-6.788 c -0.123,0 -0.205,0.082 -0.205,0.205 V 6.583 c 0,0.123 0.082,0.205 0.205,0.205 h 1.887 c 0.123,0 0.205,-0.082 0.205,-0.205 V 5.845 h 0.021 c 0.471,0.676 1.292,1.169 2.625,1.169 1.681,0 2.912,-0.8 3.424,-2.379 C 2.44,3.876 2.543,3.179 2.543,1.846 2.543,0.513 2.44,-0.185 2.194,-0.943 1.682,-2.522 0.451,-3.322 -1.23,-3.322 c -1.333,0 -2.154,0.492 -2.625,1.169 h -0.021 v -4.43 c 0,-0.123 -0.082,-0.205 -0.205,-0.205 z"
             style="fill:#100f0d;fill-opacity:1;fill-rule:nonzero;stroke:none"
             id="path70" />
        </g>
        <g
           id="g72"
           transform="translate(281.4756,183.7891)">
          <path
             d="M 0,0 C 0.164,0.513 0.205,0.984 0.205,1.825 0.205,2.666 0.164,3.117 0,3.65 -0.287,4.471 -0.923,4.942 -1.846,4.942 -2.769,4.942 -3.425,4.471 -3.712,3.65 -3.876,3.117 -3.917,2.666 -3.917,1.825 c 0,-0.841 0.041,-1.312 0.205,-1.825 0.287,-0.82 0.943,-1.292 1.866,-1.292 0.923,0 1.559,0.472 1.846,1.292 m -5.927,-0.615 c -0.225,0.697 -0.328,1.353 -0.328,2.44 0,1.087 0.103,1.743 0.328,2.441 0.554,1.722 2.072,2.727 4.081,2.727 1.99,0 3.507,-1.005 4.061,-2.727 C 2.44,3.568 2.543,2.912 2.543,1.825 2.543,0.738 2.44,0.082 2.215,-0.615 1.661,-2.338 0.144,-3.343 -1.846,-3.343 c -2.009,0 -3.527,1.005 -4.081,2.728"
             style="fill:#100f0d;fill-opacity:1;fill-rule:nonzero;stroke:none"
             id="path74" />
        </g>
        <g
           id="g76"
           transform="translate(289.293,192.0537)">
          <path
             d="M 0,0 C -0.123,0 -0.185,0.082 -0.123,0.205 L 1.415,2.769 C 1.497,2.912 1.62,2.974 1.784,2.974 H 3.65 c 0.123,0 0.185,-0.103 0.103,-0.205 L 1.805,0.205 C 1.682,0.062 1.579,0 1.395,0 Z m 2.974,-4.491 c -0.267,0.8 -1.005,1.271 -1.928,1.271 -0.943,0 -1.682,-0.471 -1.948,-1.271 -0.082,-0.246 -0.123,-0.492 -0.123,-0.841 0,-0.082 0.041,-0.123 0.123,-0.123 h 3.876 c 0.082,0 0.123,0.041 0.123,0.123 0,0.349 -0.041,0.595 -0.123,0.841 m -5.968,-4.368 c -0.205,0.635 -0.349,1.394 -0.349,2.42 0,1.025 0.123,1.804 0.328,2.44 0.554,1.723 2.072,2.728 4.04,2.728 2.031,0 3.507,-1.046 4.061,-2.728 0.226,-0.697 0.328,-1.374 0.328,-2.974 0,-0.123 -0.082,-0.205 -0.226,-0.205 h -6.09 c -0.082,0 -0.123,-0.041 -0.123,-0.123 0,-0.287 0.061,-0.533 0.143,-0.759 0.328,-0.963 1.108,-1.497 2.215,-1.497 1.107,0 1.825,0.411 2.317,0.944 0.103,0.102 0.205,0.123 0.308,0.041 l 1.21,-1.067 c 0.103,-0.082 0.103,-0.184 0.02,-0.287 -0.84,-0.984 -2.235,-1.681 -4.06,-1.681 -2.092,0 -3.568,1.025 -4.122,2.748"
             style="fill:#100f0d;fill-opacity:1;fill-rule:nonzero;stroke:none"
             id="path78" />
        </g>
        <g
           id="g80"
           transform="translate(296.5771,182.0049)">
          <path
             d="M 0,0 C -0.082,0.082 -0.082,0.205 0,0.287 L 1.169,1.518 C 1.251,1.6 1.374,1.6 1.456,1.518 2.174,0.861 3.322,0.39 4.348,0.39 c 1.21,0 1.825,0.492 1.825,1.169 0,0.594 -0.349,0.963 -1.641,1.087 L 3.466,2.748 C 1.456,2.953 0.431,3.979 0.431,5.66 c 0,1.907 1.374,3.117 3.835,3.117 1.538,0 2.83,-0.512 3.712,-1.21 C 8.08,7.485 8.08,7.362 8.019,7.28 L 7.014,6.07 C 6.932,5.968 6.829,5.968 6.727,6.029 6.111,6.46 5.127,6.85 4.143,6.85 3.158,6.85 2.646,6.419 2.646,5.824 2.646,5.25 2.994,4.901 4.266,4.778 L 5.332,4.676 C 7.403,4.471 8.388,3.404 8.388,1.784 8.388,-0.185 6.952,-1.559 4.245,-1.559 2.215,-1.559 0.82,-0.759 0,0"
             style="fill:#100f0d;fill-opacity:1;fill-rule:nonzero;stroke:none"
             id="path82" />
        </g>
        <g
           id="g84"
           transform="translate(307.5928,180.6719)">
          <path
             d="M 0,0 C -0.123,0 -0.205,0.082 -0.205,0.205 V 9.68 c 0,0.123 0.082,0.205 0.205,0.205 H 1.887 C 2.01,9.885 2.092,9.803 2.092,9.68 V 0.205 C 2.092,0.082 2.01,0 1.887,0 Z m 0,11.751 c -0.123,0 -0.205,0.082 -0.205,0.205 v 1.784 c 0,0.123 0.082,0.205 0.205,0.205 h 1.887 c 0.123,0 0.205,-0.082 0.205,-0.205 v -1.784 c 0,-0.123 -0.082,-0.205 -0.205,-0.205 z"
             style="fill:#100f0d;fill-opacity:1;fill-rule:nonzero;stroke:none"
             id="path86" />
        </g>
        <g
           id="g88"
           transform="translate(318.4639,187.5625)">
          <path
             d="M 0,0 C -0.267,0.8 -1.005,1.271 -1.928,1.271 -2.871,1.271 -3.609,0.8 -3.876,0 c -0.082,-0.246 -0.123,-0.492 -0.123,-0.841 0,-0.082 0.041,-0.123 0.123,-0.123 H 0 c 0.082,0 0.123,0.041 0.123,0.123 C 0.123,-0.492 0.082,-0.246 0,0 m -5.968,-4.368 c -0.205,0.636 -0.348,1.394 -0.348,2.42 0,1.025 0.123,1.804 0.328,2.44 0.553,1.723 2.071,2.728 4.04,2.728 2.03,0 3.507,-1.046 4.06,-2.728 0.226,-0.697 0.328,-1.374 0.328,-2.973 0,-0.123 -0.082,-0.206 -0.225,-0.206 h -6.091 c -0.082,0 -0.123,-0.041 -0.123,-0.123 0,-0.287 0.061,-0.533 0.144,-0.758 0.328,-0.964 1.107,-1.497 2.214,-1.497 1.108,0 1.826,0.41 2.318,0.943 0.102,0.102 0.205,0.123 0.307,0.041 l 1.21,-1.066 c 0.103,-0.082 0.103,-0.185 0.021,-0.288 -0.841,-0.984 -2.236,-1.681 -4.061,-1.681 -2.092,0 -3.568,1.025 -4.122,2.748"
             style="fill:#100f0d;fill-opacity:1;fill-rule:nonzero;stroke:none"
             id="path90" />
        </g>
        <g
           id="g92"
           transform="translate(333.9932,187.5625)">
          <path
             d="M 0,0 C -0.267,0.8 -1.005,1.271 -1.928,1.271 -2.871,1.271 -3.609,0.8 -3.876,0 c -0.082,-0.246 -0.123,-0.492 -0.123,-0.841 0,-0.082 0.041,-0.123 0.123,-0.123 H 0 c 0.082,0 0.123,0.041 0.123,0.123 C 0.123,-0.492 0.082,-0.246 0,0 m -5.968,-4.368 c -0.205,0.636 -0.348,1.394 -0.348,2.42 0,1.025 0.123,1.804 0.328,2.44 0.553,1.723 2.071,2.728 4.04,2.728 2.03,0 3.507,-1.046 4.06,-2.728 0.226,-0.697 0.328,-1.374 0.328,-2.973 0,-0.123 -0.082,-0.206 -0.225,-0.206 h -6.091 c -0.082,0 -0.123,-0.041 -0.123,-0.123 0,-0.287 0.061,-0.533 0.144,-0.758 0.328,-0.964 1.107,-1.497 2.214,-1.497 1.108,0 1.826,0.41 2.318,0.943 0.102,0.102 0.205,0.123 0.307,0.041 l 1.21,-1.066 c 0.103,-0.082 0.103,-0.185 0.021,-0.288 -0.841,-0.984 -2.236,-1.681 -4.061,-1.681 -2.092,0 -3.568,1.025 -4.122,2.748"
             style="fill:#100f0d;fill-opacity:1;fill-rule:nonzero;stroke:none"
             id="path94" />
        </g>
        <g
           id="g96"
           transform="translate(345.1533,180.6719)">
          <path
             d="m 0,0 c -0.123,0 -0.205,0.082 -0.205,0.205 v 5.701 c 0,1.272 -0.636,2.154 -1.866,2.154 -1.19,0 -1.887,-0.882 -1.887,-2.154 V 0.205 C -3.958,0.082 -4.04,0 -4.163,0 H -6.05 C -6.173,0 -6.255,0.082 -6.255,0.205 V 9.68 c 0,0.123 0.082,0.205 0.205,0.205 h 1.887 c 0.123,0 0.205,-0.082 0.205,-0.205 V 8.962 h 0.02 c 0.431,0.615 1.292,1.148 2.605,1.148 2.112,0 3.425,-1.558 3.425,-3.671 V 0.205 C 2.092,0.082 2.01,0 1.887,0 Z"
             style="fill:#100f0d;fill-opacity:1;fill-rule:nonzero;stroke:none"
             id="path98" />
        </g>
        <g
           id="g100"
           transform="translate(349.915,183.1738)">
          <path
             d="m 0,0 c -0.205,0.615 -0.308,1.395 -0.308,2.44 0,1.046 0.103,1.826 0.308,2.441 0.574,1.764 2.092,2.727 4.081,2.727 1.477,0 2.646,-0.594 3.425,-1.538 C 7.567,5.988 7.588,5.865 7.485,5.783 L 6.193,4.655 C 6.091,4.573 5.988,4.594 5.906,4.696 5.414,5.25 4.901,5.558 4.081,5.558 3.199,5.558 2.522,5.127 2.235,4.266 2.071,3.773 2.03,3.199 2.03,2.44 c 0,-0.758 0.041,-1.353 0.205,-1.845 0.287,-0.841 0.964,-1.272 1.846,-1.272 0.82,0 1.333,0.308 1.825,0.862 0.082,0.102 0.185,0.102 0.287,0.02 L 7.485,-0.923 C 7.588,-1.005 7.567,-1.107 7.506,-1.21 6.727,-2.133 5.558,-2.728 4.081,-2.728 2.092,-2.728 0.574,-1.764 0,0"
             style="fill:#100f0d;fill-opacity:1;fill-rule:nonzero;stroke:none"
             id="path102" />
        </g>
        <g
           id="g104"
           transform="translate(365.6064,183.7891)">
          <path
             d="M 0,0 C 0.164,0.513 0.205,0.984 0.205,1.825 0.205,2.666 0.164,3.117 0,3.65 -0.287,4.471 -0.923,4.942 -1.846,4.942 -2.769,4.942 -3.425,4.471 -3.712,3.65 -3.876,3.117 -3.917,2.666 -3.917,1.825 c 0,-0.841 0.041,-1.312 0.205,-1.825 0.287,-0.82 0.943,-1.292 1.866,-1.292 0.923,0 1.559,0.472 1.846,1.292 m -5.927,-0.615 c -0.225,0.697 -0.328,1.353 -0.328,2.44 0,1.087 0.103,1.743 0.328,2.441 0.554,1.722 2.072,2.727 4.081,2.727 1.99,0 3.507,-1.005 4.061,-2.727 C 2.44,3.568 2.543,2.912 2.543,1.825 2.543,0.738 2.44,0.082 2.215,-0.615 1.661,-2.338 0.144,-3.343 -1.846,-3.343 c -2.009,0 -3.527,1.005 -4.081,2.728"
             style="fill:#100f0d;fill-opacity:1;fill-rule:nonzero;stroke:none"
             id="path106" />
        </g>
        <g
           id="g108"
           transform="translate(376.2949,183.7686)">
          <path
             d="M 0,0 C 0.144,0.451 0.205,0.943 0.205,1.846 0.205,2.748 0.144,3.24 0,3.691 -0.267,4.512 -0.902,4.963 -1.846,4.963 -2.769,4.963 -3.404,4.512 -3.671,3.691 -3.814,3.24 -3.876,2.748 -3.876,1.846 c 0,-0.903 0.062,-1.395 0.205,-1.846 0.267,-0.82 0.902,-1.271 1.825,-1.271 0.944,0 1.579,0.451 1.846,1.271 m 0.41,-3.097 c -0.123,0 -0.205,0.082 -0.205,0.205 v 0.739 h -0.02 c -0.472,-0.677 -1.292,-1.169 -2.625,-1.169 -1.682,0 -2.913,0.8 -3.425,2.379 -0.246,0.758 -0.349,1.456 -0.349,2.789 0,1.333 0.103,2.03 0.349,2.789 0.512,1.579 1.743,2.379 3.425,2.379 1.333,0 2.153,-0.493 2.625,-1.169 h 0.02 v 4.799 c 0,0.123 0.082,0.205 0.205,0.205 h 1.887 c 0.123,0 0.205,-0.082 0.205,-0.205 V -2.892 c 0,-0.123 -0.082,-0.205 -0.205,-0.205 z"
             style="fill:#100f0d;fill-opacity:1;fill-rule:nonzero;stroke:none"
             id="path110" />
        </g>
        <g
           id="g112"
           transform="translate(384.6045,192.0537)">
          <path
             d="M 0,0 C -0.123,0 -0.185,0.082 -0.123,0.205 L 1.415,2.769 C 1.497,2.912 1.62,2.974 1.784,2.974 H 3.65 c 0.123,0 0.185,-0.103 0.103,-0.205 L 1.805,0.205 C 1.682,0.062 1.579,0 1.395,0 Z m 2.974,-4.491 c -0.267,0.8 -1.005,1.271 -1.928,1.271 -0.943,0 -1.682,-0.471 -1.948,-1.271 -0.082,-0.246 -0.123,-0.492 -0.123,-0.841 0,-0.082 0.041,-0.123 0.123,-0.123 h 3.876 c 0.082,0 0.123,0.041 0.123,0.123 0,0.349 -0.041,0.595 -0.123,0.841 m -5.968,-4.368 c -0.205,0.635 -0.349,1.394 -0.349,2.42 0,1.025 0.123,1.804 0.328,2.44 0.554,1.723 2.072,2.728 4.04,2.728 2.031,0 3.507,-1.046 4.061,-2.728 0.226,-0.697 0.328,-1.374 0.328,-2.974 0,-0.123 -0.082,-0.205 -0.226,-0.205 h -6.09 c -0.082,0 -0.123,-0.041 -0.123,-0.123 0,-0.287 0.061,-0.533 0.143,-0.759 0.328,-0.963 1.108,-1.497 2.215,-1.497 1.107,0 1.825,0.411 2.317,0.944 0.103,0.102 0.205,0.123 0.308,0.041 l 1.21,-1.067 c 0.103,-0.082 0.103,-0.184 0.02,-0.287 -0.84,-0.984 -2.235,-1.681 -4.06,-1.681 -2.092,0 -3.568,1.025 -4.122,2.748"
             style="fill:#100f0d;fill-opacity:1;fill-rule:nonzero;stroke:none"
             id="path114" />
        </g>
        <g
           id="g116"
           transform="translate(398.2666,187.5625)">
          <path
             d="M 0,0 C -0.267,0.8 -1.005,1.271 -1.928,1.271 -2.871,1.271 -3.609,0.8 -3.876,0 c -0.082,-0.246 -0.123,-0.492 -0.123,-0.841 0,-0.082 0.041,-0.123 0.123,-0.123 H 0 c 0.082,0 0.123,0.041 0.123,0.123 C 0.123,-0.492 0.082,-0.246 0,0 m -5.968,-4.368 c -0.205,0.636 -0.348,1.394 -0.348,2.42 0,1.025 0.123,1.804 0.328,2.44 0.553,1.723 2.071,2.728 4.04,2.728 2.03,0 3.507,-1.046 4.06,-2.728 0.226,-0.697 0.328,-1.374 0.328,-2.973 0,-0.123 -0.082,-0.206 -0.225,-0.206 h -6.091 c -0.082,0 -0.123,-0.041 -0.123,-0.123 0,-0.287 0.061,-0.533 0.144,-0.758 0.328,-0.964 1.107,-1.497 2.214,-1.497 1.108,0 1.826,0.41 2.318,0.943 0.102,0.102 0.205,0.123 0.307,0.041 l 1.21,-1.066 c 0.103,-0.082 0.103,-0.185 0.021,-0.288 -0.841,-0.984 -2.236,-1.681 -4.061,-1.681 -2.092,0 -3.568,1.025 -4.122,2.748"
             style="fill:#100f0d;fill-opacity:1;fill-rule:nonzero;stroke:none"
             id="path118" />
        </g>
        <g
           id="g120"
           transform="translate(407.6436,183.7891)">
          <path
             d="M 0,0 C 0,0.144 0.062,0.205 0.205,0.267 L 6.07,2.522 V 2.563 L 0.205,4.819 C 0.062,4.881 0,4.942 0,5.086 V 6.911 C 0,7.034 0.082,7.075 0.205,7.034 L 8.798,3.507 C 8.921,3.466 9.003,3.363 9.003,3.22 V 1.866 C 9.003,1.723 8.921,1.62 8.798,1.579 L 0.205,-1.948 C 0.082,-1.989 0,-1.948 0,-1.825 Z"
             style="fill:#100f0d;fill-opacity:1;fill-rule:nonzero;stroke:none"
             id="path122" />
        </g>
        <g
           id="g124"
           transform="translate(423.7471,187.6445)">
          <path
             d="m 0,0 c 0,2.215 0.082,2.912 0.369,3.773 0.718,2.277 2.482,3.425 4.84,3.425 2.235,0 3.917,-1.148 4.717,-2.994 0.041,-0.102 0,-0.205 -0.103,-0.246 L 8.08,3.117 C 7.957,3.056 7.854,3.117 7.813,3.22 7.362,4.204 6.583,5.024 5.209,5.024 3.876,5.024 3.097,4.307 2.707,3.179 2.522,2.604 2.461,2.051 2.461,0 c 0,-2.051 0.061,-2.604 0.246,-3.179 0.39,-1.128 1.169,-1.845 2.502,-1.845 1.374,0 2.153,0.82 2.604,1.804 0.041,0.103 0.144,0.164 0.267,0.103 L 9.823,-3.958 C 9.926,-3.999 9.967,-4.102 9.926,-4.204 9.126,-6.05 7.444,-7.198 5.209,-7.198 2.851,-7.198 1.087,-6.05 0.369,-3.773 0.082,-2.912 0,-2.215 0,0"
             style="fill:#100f0d;fill-opacity:1;fill-rule:nonzero;stroke:none"
             id="path126" />
        </g>
        <g
           id="g128"
           transform="translate(441.6348,183.7891)">
          <path
             d="M 0,0 C 0.164,0.513 0.205,0.984 0.205,1.825 0.205,2.666 0.164,3.117 0,3.65 -0.287,4.471 -0.923,4.942 -1.846,4.942 -2.769,4.942 -3.425,4.471 -3.712,3.65 -3.876,3.117 -3.917,2.666 -3.917,1.825 c 0,-0.841 0.041,-1.312 0.205,-1.825 0.287,-0.82 0.943,-1.292 1.866,-1.292 0.923,0 1.559,0.472 1.846,1.292 m -5.927,-0.615 c -0.225,0.697 -0.328,1.353 -0.328,2.44 0,1.087 0.103,1.743 0.328,2.441 0.554,1.722 2.072,2.727 4.081,2.727 1.99,0 3.507,-1.005 4.061,-2.727 C 2.44,3.568 2.543,2.912 2.543,1.825 2.543,0.738 2.44,0.082 2.215,-0.615 1.661,-2.338 0.144,-3.343 -1.846,-3.343 c -2.009,0 -3.527,1.005 -4.081,2.728"
             style="fill:#100f0d;fill-opacity:1;fill-rule:nonzero;stroke:none"
             id="path130" />
        </g>
        <g
           id="g132"
           transform="translate(452.3223,183.7686)">
          <path
             d="M 0,0 C 0.144,0.451 0.205,0.943 0.205,1.846 0.205,2.748 0.144,3.24 0,3.691 -0.267,4.512 -0.902,4.963 -1.846,4.963 -2.769,4.963 -3.404,4.512 -3.671,3.691 -3.814,3.24 -3.876,2.748 -3.876,1.846 c 0,-0.903 0.062,-1.395 0.205,-1.846 0.267,-0.82 0.902,-1.271 1.825,-1.271 0.944,0 1.579,0.451 1.846,1.271 m 0.41,-3.097 c -0.123,0 -0.205,0.082 -0.205,0.205 v 0.739 h -0.02 c -0.472,-0.677 -1.292,-1.169 -2.625,-1.169 -1.682,0 -2.913,0.8 -3.425,2.379 -0.246,0.758 -0.349,1.456 -0.349,2.789 0,1.333 0.103,2.03 0.349,2.789 0.512,1.579 1.743,2.379 3.425,2.379 1.333,0 2.153,-0.493 2.625,-1.169 h 0.02 v 4.799 c 0,0.123 0.082,0.205 0.205,0.205 h 1.887 c 0.123,0 0.205,-0.082 0.205,-0.205 V -2.892 c 0,-0.123 -0.082,-0.205 -0.205,-0.205 z"
             style="fill:#100f0d;fill-opacity:1;fill-rule:nonzero;stroke:none"
             id="path134" />
        </g>
        <g
           id="g136"
           transform="translate(463.6055,187.5625)">
          <path
             d="M 0,0 C -0.267,0.8 -1.005,1.271 -1.928,1.271 -2.871,1.271 -3.609,0.8 -3.876,0 c -0.082,-0.246 -0.123,-0.492 -0.123,-0.841 0,-0.082 0.041,-0.123 0.123,-0.123 H 0 c 0.082,0 0.123,0.041 0.123,0.123 C 0.123,-0.492 0.082,-0.246 0,0 m -5.968,-4.368 c -0.205,0.636 -0.348,1.394 -0.348,2.42 0,1.025 0.123,1.804 0.328,2.44 0.553,1.723 2.071,2.728 4.04,2.728 2.03,0 3.507,-1.046 4.06,-2.728 0.226,-0.697 0.328,-1.374 0.328,-2.973 0,-0.123 -0.082,-0.206 -0.225,-0.206 h -6.091 c -0.082,0 -0.123,-0.041 -0.123,-0.123 0,-0.287 0.061,-0.533 0.144,-0.758 0.328,-0.964 1.107,-1.497 2.214,-1.497 1.108,0 1.826,0.41 2.318,0.943 0.102,0.102 0.205,0.123 0.307,0.041 l 1.21,-1.066 c 0.103,-0.082 0.103,-0.185 0.021,-0.288 -0.841,-0.984 -2.236,-1.681 -4.061,-1.681 -2.092,0 -3.568,1.025 -4.122,2.748"
             style="fill:#100f0d;fill-opacity:1;fill-rule:nonzero;stroke:none"
             id="path138" />
        </g>
        <g
           id="g140"
           transform="translate(481.002,190.29)">
          <path
             d="m 0,0 c 0,1.271 -0.882,2.153 -2.317,2.153 h -2.748 c -0.082,0 -0.123,-0.041 -0.123,-0.123 v -4.06 c 0,-0.082 0.041,-0.123 0.123,-0.123 h 2.748 C -0.882,-2.153 0,-1.292 0,0 m -7.403,-9.618 c -0.123,0 -0.205,0.082 -0.205,0.205 V 4.122 c 0,0.123 0.082,0.205 0.205,0.205 h 5.229 C 0.533,4.327 2.42,2.584 2.42,0 c 0,-2.604 -1.887,-4.348 -4.594,-4.348 h -2.891 c -0.082,0 -0.123,-0.041 -0.123,-0.123 v -4.942 c 0,-0.123 -0.083,-0.205 -0.206,-0.205 z"
             style="fill:#100f0d;fill-opacity:1;fill-rule:nonzero;stroke:none"
             id="path142" />
        </g>
        <g
           id="g144"
           transform="translate(491.1367,183.7891)">
          <path
             d="M 0,0 C 0.164,0.513 0.205,0.984 0.205,1.825 0.205,2.666 0.164,3.117 0,3.65 -0.287,4.471 -0.923,4.942 -1.846,4.942 -2.769,4.942 -3.425,4.471 -3.712,3.65 -3.876,3.117 -3.917,2.666 -3.917,1.825 c 0,-0.841 0.041,-1.312 0.205,-1.825 0.287,-0.82 0.943,-1.292 1.866,-1.292 0.923,0 1.559,0.472 1.846,1.292 m -5.927,-0.615 c -0.225,0.697 -0.328,1.353 -0.328,2.44 0,1.087 0.103,1.743 0.328,2.441 0.554,1.722 2.072,2.727 4.081,2.727 1.99,0 3.507,-1.005 4.061,-2.727 C 2.44,3.568 2.543,2.912 2.543,1.825 2.543,0.738 2.44,0.082 2.215,-0.615 1.661,-2.338 0.144,-3.343 -1.846,-3.343 c -2.009,0 -3.527,1.005 -4.081,2.728"
             style="fill:#100f0d;fill-opacity:1;fill-rule:nonzero;stroke:none"
             id="path146" />
        </g>
        <g
           id="g148"
           transform="translate(501.9277,187.5625)">
          <path
             d="M 0,0 C -0.267,0.8 -1.005,1.271 -1.928,1.271 -2.871,1.271 -3.609,0.8 -3.876,0 c -0.082,-0.246 -0.123,-0.492 -0.123,-0.841 0,-0.082 0.041,-0.123 0.123,-0.123 H 0 c 0.082,0 0.123,0.041 0.123,0.123 C 0.123,-0.492 0.082,-0.246 0,0 m -5.968,-4.368 c -0.205,0.636 -0.348,1.394 -0.348,2.42 0,1.025 0.123,1.804 0.328,2.44 0.553,1.723 2.071,2.728 4.04,2.728 2.03,0 3.507,-1.046 4.06,-2.728 0.226,-0.697 0.328,-1.374 0.328,-2.973 0,-0.123 -0.082,-0.206 -0.225,-0.206 h -6.091 c -0.082,0 -0.123,-0.041 -0.123,-0.123 0,-0.287 0.061,-0.533 0.144,-0.758 0.328,-0.964 1.107,-1.497 2.214,-1.497 1.108,0 1.826,0.41 2.318,0.943 0.102,0.102 0.205,0.123 0.307,0.041 l 1.21,-1.066 c 0.103,-0.082 0.103,-0.185 0.021,-0.288 -0.841,-0.984 -2.236,-1.681 -4.061,-1.681 -2.092,0 -3.568,1.025 -4.122,2.748"
             style="fill:#100f0d;fill-opacity:1;fill-rule:nonzero;stroke:none"
             id="path150" />
        </g>
        <g
           id="g152"
           transform="translate(509.7236,180.5488)">
          <path
             d="m 0,0 c -1.989,0 -2.748,0.964 -2.748,2.892 v 5.209 c 0,0.082 -0.041,0.123 -0.123,0.123 h -0.656 c -0.123,0 -0.205,0.082 -0.205,0.205 v 1.374 c 0,0.123 0.082,0.205 0.205,0.205 h 0.656 c 0.082,0 0.123,0.041 0.123,0.123 v 2.707 c 0,0.123 0.082,0.205 0.205,0.205 h 1.887 c 0.123,0 0.205,-0.082 0.205,-0.205 v -2.707 c 0,-0.082 0.041,-0.123 0.123,-0.123 h 1.312 c 0.123,0 0.205,-0.082 0.205,-0.205 V 8.429 C 1.189,8.306 1.107,8.224 0.984,8.224 h -1.312 c -0.082,0 -0.123,-0.041 -0.123,-0.123 V 2.974 c 0,-0.698 0.287,-0.923 0.923,-0.923 h 0.512 c 0.123,0 0.205,-0.082 0.205,-0.205 V 0.205 C 1.189,0.082 1.107,0 0.984,0 Z"
             style="fill:#100f0d;fill-opacity:1;fill-rule:nonzero;stroke:none"
             id="path154" />
        </g>
        <g
           id="g156"
           transform="translate(513.623,180.6719)">
          <path
             d="M 0,0 C -0.123,0 -0.205,0.082 -0.205,0.205 V 9.68 c 0,0.123 0.082,0.205 0.205,0.205 H 1.887 C 2.01,9.885 2.092,9.803 2.092,9.68 V 8.839 h 0.02 C 2.584,9.598 3.425,10.11 4.676,10.11 5.455,10.11 6.234,9.803 6.747,9.29 6.85,9.188 6.87,9.105 6.788,9.003 L 5.701,7.629 C 5.619,7.526 5.517,7.506 5.414,7.588 4.963,7.875 4.491,8.06 3.958,8.06 2.666,8.06 2.092,7.137 2.092,5.558 V 0.205 C 2.092,0.082 2.01,0 1.887,0 Z"
             style="fill:#100f0d;fill-opacity:1;fill-rule:nonzero;stroke:none"
             id="path158" />
        </g>
        <g
           id="g160"
           transform="translate(522.4443,176.9805)">
          <path
             d="m 0,0 c -0.123,0 -0.205,0.082 -0.205,0.205 v 1.641 c 0,0.123 0.082,0.205 0.205,0.205 h 0.369 c 0.779,0 1.169,0.348 1.477,1.169 l 0.287,0.841 -3.61,9.31 c -0.041,0.123 0.041,0.205 0.165,0.205 h 2.03 c 0.123,0 0.205,-0.082 0.246,-0.205 L 3.199,6.911 H 3.24 l 2.133,6.46 c 0.041,0.123 0.123,0.205 0.246,0.205 h 1.948 c 0.123,0 0.205,-0.082 0.164,-0.205 L 3.958,3.076 C 3.097,0.738 2.276,0 0.636,0 Z"
             style="fill:#100f0d;fill-opacity:1;fill-rule:nonzero;stroke:none"
             id="path162" />
        </g>
      </g>
    </g>
  </g>
</svg>
